<svg width="332" height="1401" viewBox="0 0 332 1401" fill="none" xmlns="http://www.w3.org/2000/svg">
<path d="M332 1401C325.19 1393.7 318.709 1384.69 311.497 1377.75C298.648 1365.39 285.68 1353.11 272.178 1342.9C248.064 1324.67 222.929 1310.88 197.086 1300.76C195.491 1300.14 194.005 1298.75 192.11 1296.84C192.691 1279.65 192.686 1263.06 188.142 1248.38C179.637 1220.89 164.937 1207.35 146.72 1205.69C128.204 1203.99 110.064 1224.53 102.252 1253.65C102.185 1246.53 99.7895 1242.62 96.1751 1239.02C90.6693 1233.55 85.2542 1227.47 80.4875 1220.38C65.1725 1197.62 50.0802 1174.61 40.2286 1143.75C30.3302 1112.74 23.3784 1080.07 18.5793 1046.15C17.2096 1036.48 18.1923 1025.91 17.9757 1015.76C17.7831 1006.74 17.4096 997.738 17.1521 988.723C17.1139 987.38 17.1422 985.959 17.3637 984.68C20.2247 968.148 22.6369 951.349 26.1145 935.175C34.5493 895.944 45.4048 858.834 62.9191 828.001C81.4477 795.383 99.6853 762.305 118.455 730.071C130.33 709.678 143.516 691.321 155.07 670.474C166.68 649.526 178.17 627.894 187.56 604.233C197.655 578.797 202.873 549.467 206.179 519.158C209.638 487.444 206.472 457.094 201.628 426.895C197.727 402.572 190.612 380.685 181.853 360.004C172.33 337.521 159.908 320.168 147.776 301.886C123.95 265.982 100.301 229.61 77.8875 191.342C59.0038 159.101 41.6938 124.284 24.2947 89.7725C19.1853 79.638 15.5357 67.0951 12.3089 54.8704C7.68236 37.3435 4.05743 19.0958 0 0.515076C76.3505 -0.125705 152.706 -0.125705 229.69 0.279347C230.865 0.939552 231.412 1.19471 232.02 1.56427C232.081 1.67869 232.197 1.91419 232.144 2.6423C232.166 8.31031 231.718 13.4565 232.399 18.1574C237.763 55.2095 242.124 92.586 251.868 127.733C267.34 183.541 287.52 233.271 316.16 272.888C321.012 279.6 326.699 284.666 332 290.492C332 660.403 332 1030.31 332 1401Z" fill="#E0ECF8"/>
<path d="M332 290C326.696 284.951 321.006 279.889 316.152 273.181C287.498 233.59 267.308 183.893 251.829 128.123C242.08 92.9996 237.717 55.6481 232.35 18.6207C231.669 13.923 232.118 8.78024 232.546 3.04785C266.033 2.16803 299.016 2.08402 332 2C332 97.7422 332 193.484 332 290Z" fill="#6AA5E0"/>
<path d="M102.383 1254.6C110.21 1224.91 128.266 1204.41 146.696 1206.1C164.828 1207.76 179.46 1221.28 187.925 1248.73C192.448 1263.39 192.453 1279.96 191.486 1297C189.088 1316.64 183.764 1333.23 174.142 1343.9C149.091 1371.69 115.121 1361.62 102.115 1309.58C97.5329 1291.25 98.3341 1273.29 102.383 1254.6Z" fill="#6AA5E0"/>
</svg>
