<svg width="726" height="126" viewBox="0 0 726 126" fill="none" xmlns="http://www.w3.org/2000/svg">
<path d="M438 125.027C442.488 115.915 447.234 106.68 452.458 97.7242C457.848 88.4835 463.863 79.6066 469.233 70.3552C470.46 68.2411 470.166 65.244 470.918 62.3935C476.231 64.266 481.028 67.5487 486.198 68.3177C502.616 70.7596 517.327 62.4529 520.656 44.7548C522.535 34.7674 520.258 26.144 514.135 18.2992C519.537 16.3728 525.265 15.0617 530.282 12.4076C547.114 3.50259 564.968 -0.88443 583.887 0.148407C601.148 1.09073 617.742 4.79129 633.672 12.2978C645.558 17.8987 656.757 24.3419 665.847 33.5211C673.474 41.2221 680.149 50.12 685.982 59.2913C698.353 78.7407 709.897 98.7159 721.791 118.469C722.978 120.441 724.239 122.369 725.498 124.672C629.844 125.027 534.156 125.027 438 125.027Z" fill="#E0ECF8"/>
<path d="M0 125.027C0.394364 123.932 1.03758 122.476 2.1534 121.795C18.9937 111.517 36.831 103.757 56.5569 101.091C65.3938 99.8967 74.3486 97.7789 83.1243 98.2802C104.89 99.5234 126.825 101.017 147.429 109.033C156.488 112.557 164.933 117.665 173.613 122.139C174.397 122.543 174.855 123.578 175.498 124.674C117.177 125.027 58.8229 125.027 0 125.027Z" fill="#E1EDF9"/>
<path d="M513.88 18.0946C520.258 26.144 522.535 34.7674 520.656 44.7548C517.327 62.4529 502.616 70.7595 486.198 68.3177C481.028 67.5487 476.231 64.266 470.944 62.0029C468.169 58.5614 465.285 55.4835 463.34 51.8964C457.394 40.933 459.094 30.2137 466.399 20.7314C473.644 11.3262 483.458 6.8984 495.66 8.94504C502.595 10.1081 508.383 13.4116 513.88 18.0946Z" fill="#6AA5E0"/>
</svg>
